<svg width="140" height="140" viewBox="0 0 140 140" fill="none" xmlns="http://www.w3.org/2000/svg">
  <rect width="140" height="140" rx="32" fill="url(#paint0_linear_1_3)"/>
  <rect x="22" y="22" width="96" height="96" rx="24" fill="url(#paint1_linear_1_3)"/>
  <path d="M43 51C43 46.5817 46.5817 43 51 43H67C71.4183 43 75 46.5817 75 51V67C75 71.4183 71.4183 75 67 75H51C46.5817 75 43 71.4183 43 67V51Z" fill="white" fill-opacity="0.95"/>
  <path d="M65 90.5C65 84.701 69.701 80 75.5 80H89C94.799 80 99.5 84.701 99.5 90.5C99.5 96.299 94.799 101 89 101H75.5C69.701 101 65 96.299 65 90.5Z" fill="#FFEDD2"/>
  <path d="M81 43C91.4934 43 100 51.5066 100 62C100 72.4934 91.4934 81 81 81C70.5066 81 62 72.4934 62 62C62 51.5066 70.5066 43 81 43ZM81 52.5C75.7533 52.5 71.5 56.7533 71.5 62C71.5 67.2467 75.7533 71.5 81 71.5C86.2467 71.5 90.5 67.2467 90.5 62C90.5 56.7533 86.2467 52.5 81 52.5Z" fill="#FF7A18"/>
  <defs>
    <linearGradient id="paint0_linear_1_3" x1="9.5" y1="7.5" x2="128.5" y2="132.5" gradientUnits="userSpaceOnUse">
      <stop stop-color="#0F172A"/>
      <stop offset="1" stop-color="#1E3A8A"/>
    </linearGradient>
    <linearGradient id="paint1_linear_1_3" x1="31" y1="27.5" x2="112.5" y2="114.5" gradientUnits="userSpaceOnUse">
      <stop stop-color="#FFB15C"/>
      <stop offset="1" stop-color="#FF6A00"/>
    </linearGradient>
  </defs>
</svg>
